<?xml version="1.0" encoding="UTF-8"?>
<svg version="1.1" xmlns="http://www.w3.org/2000/svg" width="96" height="96">
<path d="M0 0 C31.68 0 63.36 0 96 0 C96 31.68 96 63.36 96 96 C64.32 96 32.64 96 0 96 C0 64.32 0 32.64 0 0 Z " fill="#FCFCFC" transform="translate(0,0)"/>
<path d="M0 0 C9.46476486 8.82724184 13.66856267 18.45534065 14.375 31.3125 C14.07505362 41.9043566 9.64428859 52.06871368 2.38671875 59.6953125 C0.8125 61.125 0.8125 61.125 -2 63 C-6.18964379 61.60345207 -7.552386 58.60497604 -9.875 55.0625 C-10.85601278 53.59887748 -11.83917212 52.13669196 -12.82421875 50.67578125 C-13.34032715 49.90959473 -13.85643555 49.1434082 -14.38818359 48.35400391 C-17.60663702 43.65356042 -20.98980646 39.07091955 -24.3527832 34.47338867 C-28.25180067 29.11583031 -31.87108787 23.65509387 -35.31640625 17.9921875 C-35.87199219 17.33476563 -36.42757812 16.67734375 -37 16 C-38.32 16 -39.64 16 -41 16 C-41 26.56 -41 37.12 -41 48 C-39.68 48 -38.36 48 -37 48 C-36.67 41.4 -36.34 34.8 -36 28 C-31.50340136 32.49659864 -31.50340136 32.49659864 -29.625 35.29296875 C-29.2026709 35.9154248 -28.7803418 36.53788086 -28.34521484 37.17919922 C-27.90129395 37.84193848 -27.45737305 38.50467773 -27 39.1875 C-26.03491212 40.61139471 -25.06872535 42.03454512 -24.1015625 43.45703125 C-23.59915039 44.19646973 -23.09673828 44.9359082 -22.57910156 45.69775391 C-19.37538499 50.36860228 -16.08280452 54.97736294 -12.796875 59.59057617 C-12.07371094 60.60921753 -12.07371094 60.60921753 -11.3359375 61.6484375 C-10.90845215 62.24833496 -10.4809668 62.84823242 -10.04052734 63.46630859 C-9 65 -9 65 -8 67 C-21.25542014 71.58920264 -31.57275212 72.69451852 -44.70703125 66.78125 C-55.40040393 60.86786419 -61.25714602 52.50164571 -65 41 C-67.53016446 30.25082997 -65.71574776 19.4078522 -60.375 9.75 C-54.3386691 0.45644105 -45.84539869 -5.82051974 -35.0625 -8.25 C-22.1973762 -10.42687308 -10.5116403 -8.01883008 0 0 Z " fill="#222222" transform="translate(74,17)"/>
<path d="M0 0 C1.65 0.33 3.3 0.66 5 1 C5 10.57 5 20.14 5 30 C-0.88439642 24.11560358 -0.88439642 24.11560358 -1.24291992 20.65576172 C-1.23881104 19.75615723 -1.23470215 18.85655273 -1.23046875 17.9296875 C-1.22853516 16.95128906 -1.22660156 15.97289062 -1.22460938 14.96484375 C-1.21236328 13.94519531 -1.20011719 12.92554688 -1.1875 11.875 C-1.18685547 10.84761719 -1.18621094 9.82023437 -1.18554688 8.76171875 C-1.14024086 1.14024086 -1.14024086 1.14024086 0 0 Z " fill="#F8F8F8" transform="translate(59,30)"/>
</svg>
