<?xml version="1.0" encoding="UTF-8"?>
<svg version="1.1" xmlns="http://www.w3.org/2000/svg" width="80" height="80">
<path d="M0 0 C2.47265184 1.18189648 4.7130707 2.56324917 7.0390625 4.0078125 C9.04642931 5.27268786 9.04642931 5.27268786 11.6875 4.5 C12.450625 4.005 13.21375 3.51 14 3 C19.24622155 -0.17213396 23.9672585 -1.10600261 30 0 C32.82424288 2.19022918 34.41508603 3.83017207 36 7 C36.0716735 9.55157655 36.09308442 12.07472971 36.0625 14.625 C36.05798828 15.33140625 36.05347656 16.0378125 36.04882812 16.765625 C36.03703875 18.51045275 36.01910324 20.255237 36 22 C36.89976563 22.268125 37.79953125 22.53625 38.7265625 22.8125 C43.51450949 24.54941633 46.91429593 26.92326689 50 31 C51.24970464 34.64250404 51.24839783 37.35694815 50 41 C46.1982504 45.87199004 42.22342604 49.19305488 36 50 C36.04640625 51.01320312 36.0928125 52.02640625 36.140625 53.0703125 C36.17816758 54.42184532 36.21456506 55.77341028 36.25 57.125 C36.28351563 57.79015625 36.31703125 58.4553125 36.3515625 59.140625 C36.45212173 64.26914595 35.22723319 67.0675566 32 71 C28.25708195 72.87145902 24.07411288 72.55873548 20 72 C17.52734816 70.81810352 15.2869293 69.43675083 12.9609375 67.9921875 C10.95357069 66.72731214 10.95357069 66.72731214 8.3125 67.5 C7.549375 67.995 6.78625 68.49 6 69 C0.75377845 72.17213396 -3.9672585 73.10600261 -10 72 C-12.82424288 69.80977082 -14.41508603 68.16982793 -16 65 C-16.0716735 62.44842345 -16.09308442 59.92527029 -16.0625 57.375 C-16.05798828 56.66859375 -16.05347656 55.9621875 -16.04882812 55.234375 C-16.03703875 53.48954725 -16.01910324 51.744763 -16 50 C-16.89976563 49.731875 -17.79953125 49.46375 -18.7265625 49.1875 C-23.51450949 47.45058367 -26.91429593 45.07673311 -30 41 C-31.24970464 37.35749596 -31.24839783 34.64305185 -30 31 C-26.1982504 26.12800996 -22.22342604 22.80694512 -16 22 C-16.04640625 20.98679687 -16.0928125 19.97359375 -16.140625 18.9296875 C-16.17816758 17.57815468 -16.21456506 16.22658972 -16.25 14.875 C-16.30027344 13.87726562 -16.30027344 13.87726562 -16.3515625 12.859375 C-16.45212173 7.73085405 -15.22723319 4.9324434 -12 1 C-8.25708195 -0.87145902 -4.07411288 -0.55873548 0 0 Z M-10 8 C-11.05438043 12.37973408 -10.97748847 15.65726496 -10 20 C-2.61456206 19.26945691 -2.61456206 19.26945691 3.125 15 C5.17666631 12.30695772 5.17666631 12.30695772 5 10 C3.35538655 9.16426177 1.70927487 8.33147118 0.0625 7.5 C-0.85402344 7.0359375 -1.77054688 6.571875 -2.71484375 6.09375 C-6.26491049 4.39457276 -7.15981046 5.24856639 -10 8 Z M15 10 C16.38002029 12.9723514 17.79720924 15.56119595 20 18 C22.4829419 18.90561146 22.4829419 18.90561146 25.1875 19.25 C26.08855469 19.39953125 26.98960938 19.5490625 27.91796875 19.703125 C28.94857422 19.85007812 28.94857422 19.85007812 30 20 C31.00488128 14.97559361 31.02945024 11.73538389 29 7 C27.92250591 5.71631937 27.92250591 5.71631937 25.375 5.6875 C20.97933241 6.09450626 18.69617478 7.63444814 15 10 Z M9 16 C8.67 16.66 8.34 17.32 8 18 C9.32 17.67 10.64 17.34 12 17 C11.01 16.67 10.02 16.34 9 16 Z M2 25 C-0.5624631 28.11681494 -2.49918557 31.25086125 -4 35 C-3.52288044 39.86661949 -0.33040459 44.41265025 3 48 C7.69230545 49.56410182 12.04874098 49.68067175 16.6875 48.0625 C20.1895958 44.93900915 22.39824343 41.41052402 24 37 C23.8175397 33.78518155 23.8175397 33.78518155 22 31 C21.68675781 30.37738281 21.37351562 29.75476563 21.05078125 29.11328125 C19.381716 26.22609118 18.10029416 24.38165185 14.8828125 23.265625 C10.25460749 22.61113136 6.06962143 22.55822714 2 25 Z M-8 25 C-7.67 25.99 -7.34 26.98 -7 28 C-6.67 27.01 -6.34 26.02 -6 25 C-6.66 25 -7.32 25 -8 25 Z M26 25 C26.33 25.99 26.66 26.98 27 28 C27.33 27.01 27.66 26.02 28 25 C27.34 25 26.68 25 26 25 Z M-23 32 C-24.41142752 34.8845108 -24.41142752 34.8845108 -24 38 C-21.62138817 41.14816271 -19.9990149 42.7113957 -16.1875 43.8125 C-15.1046875 43.9053125 -15.1046875 43.9053125 -14 44 C-11.49464846 38.60624285 -11.49464846 38.60624285 -11.46875 32.84375 C-12.36795953 30.72246361 -12.36795953 30.72246361 -14 28 C-18.13351845 28 -19.84629002 29.39476132 -23 32 Z M34 28 C31.49464846 33.39375715 31.49464846 33.39375715 31.46875 39.15625 C32.36795953 41.27753639 32.36795953 41.27753639 34 44 C37.48619623 43.70118318 39.04636125 42.96472514 41.875 40.8125 C44.27236982 38.17839834 44.27236982 38.17839834 44.1875 34.9375 C42.61099985 31.03773646 40.68182126 29.91454706 37 28 C36.01 28 35.02 28 34 28 Z M-8 44 C-8 44.99 -8 45.98 -8 47 C-7.34 47 -6.68 47 -6 47 C-6.33 46.01 -6.66 45.02 -7 44 C-7.33 44 -7.66 44 -8 44 Z M27 44 C26.67 44.99 26.34 45.98 26 47 C26.66 47 27.32 47 28 47 C27.67 46.01 27.34 45.02 27 44 Z M-10 52 C-11.00488128 57.02440639 -11.02945024 60.26461611 -9 65 C-7.92250591 66.28368063 -7.92250591 66.28368063 -5.375 66.3125 C-0.97933241 65.90549374 1.30382522 64.36555186 5 62 C3.61997971 59.0276486 2.20279076 56.43880405 0 54 C-2.4829419 53.09438854 -2.4829419 53.09438854 -5.1875 52.75 C-6.08855469 52.60046875 -6.98960938 52.4509375 -7.91796875 52.296875 C-8.60503906 52.19890625 -9.29210937 52.1009375 -10 52 Z M29 52 C24.15425761 52.61231603 20.2061698 53.12672076 16.9375 57 C14.81915819 59.68480293 14.81915819 59.68480293 15 62 C19.514708 64.88941312 22.46493477 66.77233468 28 66 C30.48441164 63.51558836 30.55681238 61.46206166 31.046875 58.0703125 C30.99073425 55.59076268 30.23707324 54.1220564 29 52 Z M8 54 C8.33 54.66 8.66 55.32 9 56 C9.99 55.67 10.98 55.34 12 55 C10.68 54.67 9.36 54.34 8 54 Z " fill="#07D2ED" transform="translate(30,4)"/>
<path d="M0 0 C2.47265184 1.18189648 4.7130707 2.56324917 7.0390625 4.0078125 C9.04642931 5.27268786 9.04642931 5.27268786 11.6875 4.5 C12.450625 4.005 13.21375 3.51 14 3 C19.24622155 -0.17213396 23.9672585 -1.10600261 30 0 C32.82424288 2.19022918 34.41508603 3.83017207 36 7 C36.0716735 9.55157655 36.09308442 12.07472971 36.0625 14.625 C36.05798828 15.33140625 36.05347656 16.0378125 36.04882812 16.765625 C36.03703875 18.51045275 36.01910324 20.255237 36 22 C36.89976563 22.268125 37.79953125 22.53625 38.7265625 22.8125 C43.51450949 24.54941633 46.91429593 26.92326689 50 31 C51.24970464 34.64250404 51.24839783 37.35694815 50 41 C46.1982504 45.87199004 42.22342604 49.19305488 36 50 C36.04640625 51.01320312 36.0928125 52.02640625 36.140625 53.0703125 C36.17816758 54.42184532 36.21456506 55.77341028 36.25 57.125 C36.28351563 57.79015625 36.31703125 58.4553125 36.3515625 59.140625 C36.45212173 64.26914595 35.22723319 67.0675566 32 71 C28.25708195 72.87145902 24.07411288 72.55873548 20 72 C17.52734816 70.81810352 15.2869293 69.43675083 12.9609375 67.9921875 C10.95357069 66.72731214 10.95357069 66.72731214 8.3125 67.5 C7.549375 67.995 6.78625 68.49 6 69 C0.75377845 72.17213396 -3.9672585 73.10600261 -10 72 C-12.82424288 69.80977082 -14.41508603 68.16982793 -16 65 C-16.0716735 62.44842345 -16.09308442 59.92527029 -16.0625 57.375 C-16.05798828 56.66859375 -16.05347656 55.9621875 -16.04882812 55.234375 C-16.03703875 53.48954725 -16.01910324 51.744763 -16 50 C-16.89976563 49.731875 -17.79953125 49.46375 -18.7265625 49.1875 C-23.51450949 47.45058367 -26.91429593 45.07673311 -30 41 C-31.24970464 37.35749596 -31.24839783 34.64305185 -30 31 C-26.1982504 26.12800996 -22.22342604 22.80694512 -16 22 C-16.04640625 20.98679687 -16.0928125 19.97359375 -16.140625 18.9296875 C-16.17816758 17.57815468 -16.21456506 16.22658972 -16.25 14.875 C-16.30027344 13.87726562 -16.30027344 13.87726562 -16.3515625 12.859375 C-16.45212173 7.73085405 -15.22723319 4.9324434 -12 1 C-8.25708195 -0.87145902 -4.07411288 -0.55873548 0 0 Z M-12.0625 3.1875 C-14.68646713 6.99648454 -15.14063902 9.93340716 -15.125 14.5 C-15.12757812 15.2528125 -15.13015625 16.005625 -15.1328125 16.78125 C-15.00158417 18.973535 -14.60331338 20.89319137 -14 23 C-14.66 23.04125 -15.32 23.0825 -16 23.125 C-21.4540629 24.71576835 -25.8715187 28.30727805 -29 33 C-29.63549354 37.08531565 -29.23922811 38.63753316 -26.9375 42.125 C-24.0130089 45.29111572 -20.87245532 47.13548448 -17 49 C-16.01 49 -15.02 49 -14 49 C-14.33 49.99 -14.66 50.98 -15 52 C-15.58134757 58.39482326 -15.16471598 63.37383826 -12 69 C-8.11815003 71.58789998 -6.06150084 71.14580941 -1.56640625 70.62890625 C1.1512111 69.96294522 2.63348926 69.09426342 4.8125 67.375 C8 65 8 65 10.5625 64.9375 C13 66 13 66 15.75 68 C19.83717783 70.51518635 23.22568234 71.2114089 28 71 C31.53973738 69.71966946 32.60346228 68.77419268 34.3125 65.4375 C35.41131129 59.94344357 35.78605458 54.35816375 34 49 C34.66 48.95875 35.32 48.9175 36 48.875 C41.4540629 47.28423165 45.8715187 43.69272195 49 39 C49.63549354 34.91468435 49.23922811 33.36246684 46.9375 29.875 C44.0130089 26.70888428 40.87245532 24.86451552 37 23 C36.01 23 35.02 23 34 23 C34.15984375 22.42894531 34.3196875 21.85789062 34.484375 21.26953125 C35.98576273 14.66115043 35.35483298 8.87095772 32 3 C28.3163106 0.60677504 25.52912765 0.82360249 21.30859375 1.37109375 C18.128896 2.23730583 16.09831452 3.95219883 13.55078125 5.97265625 C12 7 12 7 9.4375 7.0625 C7 6 7 6 4.3125 4 C-1.13880255 0.70864752 -6.67619015 -0.65986418 -12.0625 3.1875 Z " fill="#457FBA" transform="translate(30,4)"/>
<path d="M0 0 C2 1 2 1 3 3 C3.51981506 6.56444611 3.63102777 9.73794446 2 13 C-1.26205554 14.63102777 -4.43555389 14.51981506 -8 14 C-10 13 -10 13 -11 11 C-11.51981506 7.43555389 -11.63102777 4.26205554 -10 1 C-6.73794446 -0.63102777 -3.56444611 -0.51981506 0 0 Z " fill="#1ABADE" transform="translate(44,33)"/>
<path d="M0 0 C4.02089045 0.11731921 5.66155274 0.36364109 8.74584961 3.12597656 C10.54605561 5.97598691 11.96355897 8.6655435 13.16381836 11.81347656 C13.4512793 12.46445312 13.73874023 13.11542969 14.03491211 13.78613281 C14.24671614 17.11723253 12.50386617 19.21826065 10.78881836 22.00097656 C10.14170898 23.06703125 9.49459961 24.13308594 8.82788086 25.23144531 C7.16381836 27.81347656 7.16381836 27.81347656 6.16381836 28.81347656 C0.90674898 29.5732395 -4.64574297 30.24680819 -9.83618164 28.81347656 C-13.36452329 25.65344895 -15.16087473 22.2073218 -16.83618164 17.81347656 C-17.12364258 17.1625 -17.41110352 16.51152344 -17.70727539 15.84082031 C-17.91907942 12.5097206 -16.17622945 10.40869247 -14.46118164 7.62597656 C-13.81407227 6.55992188 -13.16696289 5.49386719 -12.50024414 4.39550781 C-9.36263484 -0.4729423 -5.42241023 0.15566155 0 0 Z M-9.83618164 3.81347656 C-12.39864474 6.9302915 -14.33536721 10.06433782 -15.83618164 13.81347656 C-15.35906208 18.68009606 -12.16658623 23.22612681 -8.83618164 26.81347656 C-4.14387619 28.37757838 0.21255934 28.49414831 4.85131836 26.87597656 C8.35341416 23.75248571 10.56206179 20.22400059 12.16381836 15.81347656 C11.98135806 12.59865811 11.98135806 12.59865811 10.16381836 9.81347656 C9.85057617 9.19085938 9.53733398 8.56824219 9.21459961 7.92675781 C7.54553436 5.03956774 6.26411252 3.19512841 3.04663086 2.07910156 C-1.58157415 1.42460792 -5.76656021 1.3717037 -9.83618164 3.81347656 Z " fill="#4881B9" transform="translate(41.836181640625,25.1865234375)"/>
<path d="M0 0 C2.66545406 2.17444936 3.84808707 3.77827771 4.27734375 7.23046875 C4.32978459 10.80227255 4.13663135 13.59010596 3 17 C-7.5309417 17.27264574 -7.5309417 17.27264574 -11.1328125 14.15234375 C-12.5897076 12.15703089 -13.86194951 10.19124633 -15 8 C-12.41268916 1.96294136 -6.48482546 -1.29696509 0 0 Z M-13 6 C-11.61997971 8.9723514 -10.20279076 11.56119595 -8 14 C-5.5170581 14.90561146 -5.5170581 14.90561146 -2.8125 15.25 C-1.91144531 15.39953125 -1.01039062 15.5490625 -0.08203125 15.703125 C0.94857422 15.85007812 0.94857422 15.85007812 2 16 C3.00488128 10.97559361 3.02945024 7.73538389 1 3 C-0.07749409 1.71631937 -0.07749409 1.71631937 -2.625 1.6875 C-7.02066759 2.09450626 -9.30382522 3.63444814 -13 6 Z " fill="#467FBA" transform="translate(58,8)"/>
<path d="M0 0 C9.42331839 -0.27264574 9.42331839 -0.27264574 13.2890625 2.84765625 C14.99128107 4.83357792 16.54851932 6.8252559 18 9 C16.25066569 13.2701699 14.09539596 14.37554768 10.03125 16.23828125 C7.49046458 17.19107578 5.67607804 17.53521561 3 17 C0.4951889 15.12139167 0.01299375 14.03898126 -1 11 C-1.09203743 9.48138245 -1.13001284 7.95889574 -1.125 6.4375 C-1.12757812 5.65246094 -1.13015625 4.86742187 -1.1328125 4.05859375 C-1 2 -1 2 0 0 Z M1 1 C-0.00488128 6.02440639 -0.02945024 9.26461611 2 14 C3.07749409 15.28368063 3.07749409 15.28368063 5.625 15.3125 C10.02066759 14.90549374 12.30382522 13.36555186 16 11 C14.61997971 8.0276486 13.20279076 5.43880405 11 3 C8.5170581 2.09438854 8.5170581 2.09438854 5.8125 1.75 C4.91144531 1.60046875 4.01039062 1.4509375 3.08203125 1.296875 C2.39496094 1.19890625 1.70789063 1.1009375 1 1 Z " fill="#467DB9" transform="translate(19,55)"/>
<path d="M0 0 C1.72053028 3.44106055 1.38418032 7.22982365 1 11 C-0.1589584 13.41869578 -1.12322096 15.12322096 -3 17 C-7.64859955 17.81350492 -10.10525815 16.52703515 -13.875 14 C-15.25942203 13.01308529 -16.63767634 12.01720167 -18 11 C-16.37284311 6.59188407 -14.68909738 4.0183524 -11 1 C-7.30446094 -0.00087516 -3.81547373 -0.11221982 0 0 Z M-2 1 C-6.84574239 1.61231603 -10.7938302 2.12672076 -14.0625 6 C-16.18084181 8.68480293 -16.18084181 8.68480293 -16 11 C-11.485292 13.88941312 -8.53506523 15.77233468 -3 15 C-0.51558836 12.51558836 -0.44318762 10.46206166 0.046875 7.0703125 C-0.00926575 4.59076268 -0.76292676 3.1220564 -2 1 Z " fill="#457FBA" transform="translate(61,55)"/>
<path d="M0 0 C4.51518456 0.38701582 7.43102115 2.3034382 11 5 C13 8 13 8 12.9375 10.9375 C11.55317267 15.45963596 8.81448343 16.9326568 4.875 19.25 C3 20 3 20 0 20 C-2.34328331 16.13498291 -4.23907263 12.81593469 -3.6328125 8.2109375 C-1.64643595 1.64643595 -1.64643595 1.64643595 0 0 Z M1 2 C-1.50535154 7.39375715 -1.50535154 7.39375715 -1.53125 13.15625 C-0.63204047 15.27753639 -0.63204047 15.27753639 1 18 C4.48619623 17.70118318 6.04636125 16.96472514 8.875 14.8125 C11.27236982 12.17839834 11.27236982 12.17839834 11.1875 8.9375 C9.61099985 5.03773646 7.68182126 3.91454706 4 2 C3.01 2 2.02 2 1 2 Z " fill="#4782B9" transform="translate(63,30)"/>
<path d="M0 0 C1.88887043 3.13154835 2.65991449 6.37580521 3 10 C2.1240654 13.30048284 0.76602704 16.08711078 -1 19 C-5.52536666 18.46760392 -8.38839627 16.72876727 -12 14 C-14 11 -14 11 -13.9375 8.0625 C-12.55007142 3.5302333 -9.78774909 2.13765851 -5.9375 -0.3125 C-3.45988851 -1.19165246 -2.42164981 -0.9960392 0 0 Z M-11 5 C-12.41142752 7.8845108 -12.41142752 7.8845108 -12 11 C-9.62138817 14.14816271 -7.9990149 15.7113957 -4.1875 16.8125 C-3.1046875 16.9053125 -3.1046875 16.9053125 -2 17 C0.50535154 11.60624285 0.50535154 11.60624285 0.53125 5.84375 C-0.36795953 3.72246361 -0.36795953 3.72246361 -2 1 C-6.13351845 1 -7.84629002 2.39476132 -11 5 Z " fill="#4783B9" transform="translate(18,31)"/>
<path d="M0 0 C4.61773092 0.87502969 7.58454642 3.19760022 11.1875 6.125 C9.77340364 10.62439751 8.00791561 13.31816404 4.1875 16.125 C0.52257904 16.83217489 -3.08498576 17.05319149 -6.8125 17.125 C-8.56018429 11.88194714 -8.7227613 7.0213777 -6.3125 2 C-3.8125 0.125 -3.8125 0.125 0 0 Z M-5.8125 4.125 C-6.86688043 8.50473408 -6.78998847 11.78226496 -5.8125 16.125 C1.57293794 15.39445691 1.57293794 15.39445691 7.3125 11.125 C9.36416631 8.43195772 9.36416631 8.43195772 9.1875 6.125 C7.54288655 5.28926177 5.89677487 4.45647118 4.25 3.625 C3.33347656 3.1609375 2.41695312 2.696875 1.47265625 2.21875 C-2.07741049 0.51957276 -2.97231046 1.37356639 -5.8125 4.125 Z " fill="#477DBA" transform="translate(25.8125,7.875)"/>
<path d="M0 0 C2.96865509 2.54456151 4.3619751 5.48994665 6 9 C3.36 8.67 0.72 8.34 -2 8 C-1.125 2.25 -1.125 2.25 0 0 Z M0 4 C0 4.99 0 5.98 0 7 C0.66 7 1.32 7 2 7 C1.67 6.01 1.34 5.02 1 4 C0.67 4 0.34 4 0 4 Z " fill="#4484BB" transform="translate(22,44)"/>
<path d="M0 0 C-2.475 4.455 -2.475 4.455 -5 9 C-7.5654594 6.4345406 -7.54046087 4.52313332 -8 1 C-5 0 -5 0 0 0 Z M-6 2 C-5.67 2.99 -5.34 3.98 -5 5 C-4.67 4.01 -4.34 3.02 -4 2 C-4.66 2 -5.32 2 -6 2 Z " fill="#4585BA" transform="translate(28,27)"/>
<path d="M0 0 C2.5654594 2.5654594 2.54046087 4.47686668 3 8 C0.36 8.33 -2.28 8.66 -5 9 C-3.35 6.03 -1.7 3.06 0 0 Z M0 4 C-0.33 4.99 -0.66 5.98 -1 7 C-0.34 7 0.32 7 1 7 C0.67 6.01 0.34 5.02 0 4 Z " fill="#4684B9" transform="translate(57,44)"/>
<path d="M0 0 C2.64 0.33 5.28 0.66 8 1 C7.25 6.75 7.25 6.75 5 9 C3.35 6.03 1.7 3.06 0 0 Z M4 2 C4.33 2.99 4.66 3.98 5 5 C5.33 4.01 5.66 3.02 6 2 C5.34 2 4.68 2 4 2 Z " fill="#4684B9" transform="translate(52,27)"/>
</svg>
