<?xml version="1.0" encoding="UTF-8"?>
<svg version="1.1" xmlns="http://www.w3.org/2000/svg" width="96" height="96">
<path d="M0 0 C3.4955126 2.31108271 6.46129779 5.22791147 9.515625 8.08203125 C13.05902895 11.31655294 16.13433713 14.06847671 21.14453125 14.3984375 C26.19749721 14.08210685 29.23155315 12.90907185 32.890625 9.25 C33.550625 8.59 34.210625 7.93 34.890625 7.25 C34.33859555 14.15036815 32.11535833 18.44978402 26.953125 23 C19.74293639 28.29728143 11.51261568 28.29581756 2.890625 27.25 C-4.06582518 25.29491923 -8.38964068 21.21320674 -13.2421875 16.05859375 C-16.08981259 13.30032928 -18.27161676 12.29666134 -22.109375 11.25 C-26.85594022 11.41090052 -29.51767128 12.19040053 -33.109375 15.25 C-33.769375 15.25 -34.429375 15.25 -35.109375 15.25 C-35.439375 16.24 -35.769375 17.23 -36.109375 18.25 C-36.87108185 15.99494682 -37.21763947 14.64325478 -36.578125 12.3203125 C-33.60240703 6.34487884 -29.85134875 2.14034191 -23.84375 -0.89453125 C-16.93248634 -3.05676945 -6.706344 -3.03243381 0 0 Z " fill="#00ACC1" transform="translate(61.109375,20.75)"/>
<path d="M0 0 C4.19679163 2.4604306 7.31787993 5.67012245 10.6328125 9.19140625 C13.48043759 11.94967072 15.66224176 12.95333866 19.5 14 C24.24656522 13.83909948 26.90829628 13.05959947 30.5 10 C31.16 10 31.82 10 32.5 10 C32.83 9.01 33.16 8.02 33.5 7 C34.26170685 9.25505318 34.60826447 10.60674522 33.96875 12.9296875 C30.91383854 19.0641468 27.14435947 23.50866295 20.703125 26.14453125 C13.50464914 28.06705102 4.36102176 28.33892939 -2.57421875 25.25 C-6.09957471 22.9617365 -9.0623493 20.02986643 -12.125 17.16796875 C-15.66840395 13.93344706 -18.74371213 11.18152329 -23.75390625 10.8515625 C-28.80687221 11.16789315 -31.84092815 12.34092815 -35.5 16 C-36.16 16.66 -36.82 17.32 -37.5 18 C-36.94797055 11.09963185 -34.72473333 6.80021598 -29.5625 2.25 C-21.48372788 -3.68542441 -9.12010029 -4.21255021 0 0 Z " fill="#00ACC1" transform="translate(37.5,50)"/>
</svg>
